<svg xmlns="http://www.w3.org/2000/svg" width="700" height="220" viewBox="0 0 700 220">
  <defs>
    <linearGradient id="bg" x1="0%" y1="0%" x2="100%" y2="100%">
      <stop offset="0%" stop-color="#112B1E"/>
      <stop offset="100%" stop-color="#1E4535"/>
    </linearGradient>
    <radialGradient id="spot" cx="50%" cy="50%" r="60%">
      <stop offset="0%" stop-color="#52B788" stop-opacity="0.18"/>
      <stop offset="100%" stop-color="#52B788" stop-opacity="0"/>
    </radialGradient>
  </defs>
  <rect width="700" height="220" fill="url(#bg)"/>
  <rect width="700" height="220" fill="url(#spot)"/>
  <!-- Connection nodes network -->
  <circle cx="350" cy="110" r="18" fill="rgba(82,183,136,0.5)" stroke="rgba(82,183,136,0.7)" stroke-width="1.5"/>
  <circle cx="200" cy="70" r="12" fill="rgba(82,183,136,0.3)" stroke="rgba(82,183,136,0.45)" stroke-width="1.5"/>
  <circle cx="500" cy="70" r="12" fill="rgba(82,183,136,0.3)" stroke="rgba(82,183,136,0.45)" stroke-width="1.5"/>
  <circle cx="180" cy="155" r="10" fill="rgba(82,183,136,0.22)" stroke="rgba(82,183,136,0.35)" stroke-width="1.5"/>
  <circle cx="520" cy="155" r="10" fill="rgba(82,183,136,0.22)" stroke="rgba(82,183,136,0.35)" stroke-width="1.5"/>
  <circle cx="350" cy="40" r="8" fill="rgba(82,183,136,0.18)" stroke="rgba(82,183,136,0.28)" stroke-width="1.5"/>
  <circle cx="350" cy="180" r="8" fill="rgba(82,183,136,0.18)" stroke="rgba(82,183,136,0.28)" stroke-width="1.5"/>
  <!-- Connection lines -->
  <line x1="332" y1="98" x2="212" y2="78" stroke="rgba(82,183,136,0.2)" stroke-width="1"/>
  <line x1="368" y1="98" x2="488" y2="78" stroke="rgba(82,183,136,0.2)" stroke-width="1"/>
  <line x1="335" y1="120" x2="188" y2="148" stroke="rgba(82,183,136,0.18)" stroke-width="1"/>
  <line x1="365" y1="120" x2="512" y2="148" stroke="rgba(82,183,136,0.18)" stroke-width="1"/>
  <line x1="350" y1="92" x2="350" y2="48" stroke="rgba(82,183,136,0.18)" stroke-width="1"/>
  <line x1="350" y1="128" x2="350" y2="172" stroke="rgba(82,183,136,0.18)" stroke-width="1"/>
  <!-- Labels -->
  <rect x="110" y="80" width="60" height="6" rx="3" fill="rgba(255,255,255,0.1)"/>
  <rect x="530" y="80" width="60" height="6" rx="3" fill="rgba(255,255,255,0.1)"/>
  <rect x="280" y="20" width="140" height="6" rx="3" fill="rgba(255,255,255,0.1)"/>
</svg>
