<svg xmlns="http://www.w3.org/2000/svg" width="700" height="220" viewBox="0 0 700 220">
  <defs>
    <linearGradient id="bg" x1="100%" y1="0%" x2="0%" y2="100%">
      <stop offset="0%" stop-color="#162E22"/>
      <stop offset="100%" stop-color="#1E4535"/>
    </linearGradient>
    <radialGradient id="spot" cx="55%" cy="45%" r="50%">
      <stop offset="0%" stop-color="#40916C" stop-opacity="0.3"/>
      <stop offset="100%" stop-color="#40916C" stop-opacity="0"/>
    </radialGradient>
  </defs>
  <rect width="700" height="220" fill="url(#bg)"/>
  <rect width="700" height="220" fill="url(#spot)"/>
  <!-- Target rings -->
  <circle cx="350" cy="110" r="90" fill="none" stroke="rgba(82,183,136,0.12)" stroke-width="1.5"/>
  <circle cx="350" cy="110" r="65" fill="none" stroke="rgba(82,183,136,0.16)" stroke-width="1.5"/>
  <circle cx="350" cy="110" r="40" fill="none" stroke="rgba(82,183,136,0.22)" stroke-width="1.5"/>
  <circle cx="350" cy="110" r="16" fill="rgba(82,183,136,0.35)"/>
  <circle cx="350" cy="110" r="5" fill="rgba(82,183,136,0.8)"/>
  <!-- Crosshair lines -->
  <line x1="350" y1="10" x2="350" y2="88" stroke="rgba(82,183,136,0.15)" stroke-width="1"/>
  <line x1="350" y1="132" x2="350" y2="210" stroke="rgba(82,183,136,0.15)" stroke-width="1"/>
  <line x1="250" y1="110" x2="328" y2="110" stroke="rgba(82,183,136,0.15)" stroke-width="1"/>
  <line x1="372" y1="110" x2="460" y2="110" stroke="rgba(82,183,136,0.15)" stroke-width="1"/>
  <!-- Stat chips left -->
  <rect x="60" y="60" width="110" height="44" rx="8" fill="rgba(255,255,255,0.05)" stroke="rgba(255,255,255,0.08)" stroke-width="1"/>
  <rect x="74" y="72" width="50" height="6" rx="3" fill="rgba(255,255,255,0.1)"/>
  <rect x="74" y="86" width="36" height="10" rx="3" fill="rgba(82,183,136,0.4)"/>
  <!-- Stat chips right -->
  <rect x="530" y="60" width="110" height="44" rx="8" fill="rgba(255,255,255,0.05)" stroke="rgba(255,255,255,0.08)" stroke-width="1"/>
  <rect x="544" y="72" width="50" height="6" rx="3" fill="rgba(255,255,255,0.1)"/>
  <rect x="544" y="86" width="36" height="10" rx="3" fill="rgba(82,183,136,0.4)"/>
  <rect x="530" y="116" width="110" height="44" rx="8" fill="rgba(255,255,255,0.05)" stroke="rgba(255,255,255,0.08)" stroke-width="1"/>
  <rect x="544" y="128" width="50" height="6" rx="3" fill="rgba(255,255,255,0.1)"/>
  <rect x="544" y="142" width="36" height="10" rx="3" fill="rgba(82,183,136,0.4)"/>
</svg>
