<svg xmlns="http://www.w3.org/2000/svg" width="700" height="220" viewBox="0 0 700 220">
  <defs>
    <linearGradient id="bg" x1="0%" y1="0%" x2="100%" y2="100%">
      <stop offset="0%" stop-color="#0D2B1F"/>
      <stop offset="100%" stop-color="#1F4D38"/>
    </linearGradient>
    <radialGradient id="spot" cx="70%" cy="30%" r="60%">
      <stop offset="0%" stop-color="#52B788" stop-opacity="0.28"/>
      <stop offset="100%" stop-color="#52B788" stop-opacity="0"/>
    </radialGradient>
  </defs>
  <rect width="700" height="220" fill="url(#bg)"/>
  <rect width="700" height="220" fill="url(#spot)"/>
  <!-- Browser frame -->
  <rect x="80" y="28" width="540" height="164" rx="8" fill="rgba(255,255,255,0.05)" stroke="rgba(255,255,255,0.1)" stroke-width="1"/>
  <rect x="80" y="28" width="540" height="26" rx="8" fill="rgba(255,255,255,0.07)"/>
  <circle cx="100" cy="41" r="4" fill="rgba(255,255,255,0.15)"/>
  <circle cx="116" cy="41" r="4" fill="rgba(255,255,255,0.15)"/>
  <circle cx="132" cy="41" r="4" fill="rgba(255,255,255,0.15)"/>
  <rect x="156" y="34" width="240" height="14" rx="7" fill="rgba(255,255,255,0.06)"/>
  <!-- Nav bar -->
  <rect x="96" y="70" width="508" height="1" fill="rgba(255,255,255,0.05)"/>
  <rect x="96" y="80" width="40" height="6" rx="3" fill="rgba(255,255,255,0.12)"/>
  <rect x="148" y="80" width="40" height="6" rx="3" fill="rgba(255,255,255,0.07)"/>
  <rect x="200" y="80" width="40" height="6" rx="3" fill="rgba(255,255,255,0.07)"/>
  <rect x="502" y="77" width="72" height="12" rx="6" fill="rgba(82,183,136,0.4)"/>
  <!-- Hero section of site wireframe -->
  <rect x="96" y="102" width="240" height="12" rx="6" fill="rgba(255,255,255,0.1)"/>
  <rect x="96" y="122" width="180" height="8" rx="4" fill="rgba(255,255,255,0.06)"/>
  <rect x="96" y="138" width="200" height="8" rx="4" fill="rgba(255,255,255,0.05)"/>
  <rect x="96" y="158" width="80" height="20" rx="10" fill="rgba(82,183,136,0.35)"/>
  <!-- Image placeholder right side -->
  <rect x="380" y="100" width="200" height="78" rx="6" fill="rgba(255,255,255,0.04)" stroke="rgba(255,255,255,0.07)" stroke-width="1"/>
</svg>
